<?xml version="1.0" standalone="no"?>
<!DOCTYPE svg PUBLIC "-//W3C//DTD SVG 1.1//EN" "http://www.w3.org/Graphics/SVG/1.1/DTD/svg11.dtd" >
<svg xmlns="http://www.w3.org/2000/svg" xmlns:xlink="http://www.w3.org/1999/xlink" version="1.1">
<metadata>
Created by FontForge 20170910 at Mon May  7 07:28:23 2007
 By Jimmy Wärting
I1993 Tobias Frere-Jones. Produced by The Font Bureau, Inc. Based on a design by S.H. deRoos.
</metadata>
<defs>
<font id="Nobel-Light" horiz-adv-x="730" >
  <font-face 
    font-family="Nobel"
    font-weight="300"
    font-stretch="normal"
    units-per-em="1000"
    panose-1="0 0 0 0 0 0 0 0 0 0"
    ascent="800"
    descent="-200"
    x-height="401"
    cap-height="730"
    bbox="-44 -195 1106 930"
    underline-thickness="20"
    underline-position="-133"
    stemh="39"
    stemv="44"
    unicode-range="U+0020-FB02"
  />
<missing-glyph horiz-adv-x="500" 
 />
    <glyph glyph-name=".notdef" horiz-adv-x="500" 
 />
    <glyph glyph-name="space" unicode=" " horiz-adv-x="200" 
 />
    <glyph glyph-name="exclam" unicode="!" horiz-adv-x="189" 
d="M117 300l-10 -171h-25l-10 171v430h45v-430zM117 0h-45v84h45v-84z" />
    <glyph glyph-name="quotedbl" unicode="&#x22;" horiz-adv-x="280" 
d="M220 643l-10 -90h-25l-10 90v87h45v-87zM105 643l-10 -90h-25l-10 90v87h45v-87z" />
    <glyph glyph-name="numbersign" unicode="#" horiz-adv-x="586" 
d="M556 227h-143l-20 -227h-45l20 227h-174l-20 -227h-45l20 227h-119v36h122l18 207h-140v36h143l20 224h45l-20 -224h174l20 224h45l-20 -224h119v-36h-122l-18 -207h140v-36zM389 470h-174l-18 -207h174z" />
    <glyph glyph-name="dollar" unicode="$" horiz-adv-x="485" 
d="M450 189c0 -108 -79 -181 -195 -188v-70h-41v70c-74 6 -151 46 -189 90l28 29c39 -41 101 -72 161 -76v332c-112 51 -167 95 -167 188c0 94 68 157 167 165v56h41v-56c61 -3 110 -21 162 -63l-28 -33c-38 36 -81 52 -134 55v-283c118 -54 195 -104 195 -216zM214 424v264
c-79 -7 -121 -54 -121 -124c0 -69 31 -98 121 -140zM405 184c0 91 -46 126 -150 174v-314c94 8 150 60 150 140z" />
    <glyph glyph-name="percent" unicode="%" 
d="M334 556c0 -108 -55 -191 -144 -191c-71 0 -140 62 -140 188c0 107 55 189 143 189c91 0 141 -85 141 -186zM635 730l-499 -730h-51l499 730h51zM680 179c0 -108 -55 -191 -144 -191c-71 0 -140 62 -140 188c0 107 55 189 143 189c91 0 141 -85 141 -186zM289 553
c0 81 -33 149 -96 149s-98 -63 -98 -149c0 -84 32 -148 95 -148c67 0 99 65 99 148zM635 176c0 81 -33 149 -96 149s-98 -63 -98 -149c0 -84 32 -148 95 -148c67 0 99 65 99 148z" />
    <glyph glyph-name="ampersand" unicode="&#x26;" horiz-adv-x="630" 
d="M606 0h-58l-81 91c-61 -57 -136 -103 -230 -103c-112 0 -197 85 -197 193c0 98 73 171 148 226l-49 55c-35 40 -62 84 -62 132c0 83 73 148 159 148c91 0 154 -65 154 -147c0 -79 -69 -141 -141 -193l222 -250c25 26 47 53 66 78l30 -29c-21 -25 -44 -53 -69 -79z
M345 591c0 68 -43 110 -109 110c-61 0 -113 -39 -113 -104c0 -39 13 -69 49 -109l51 -57c65 47 122 99 122 160zM440 122l-226 255c-70 -53 -127 -113 -127 -193c0 -83 58 -154 146 -154c83 0 151 40 207 92z" />
    <glyph glyph-name="quoteright" unicode="&#x2019;" horiz-adv-x="165" 
d="M105 661c0 -36 -16 -80 -41 -108h-28c24 34 24 67 24 106v71h45v-69z" />
    <glyph glyph-name="parenleft" unicode="(" horiz-adv-x="293" 
d="M278 -195c-150 120 -235 282 -235 484s85 364 235 484v-28c-106 -102 -188 -276 -188 -456s82 -354 188 -456v-28z" />
    <glyph glyph-name="parenright" unicode=")" horiz-adv-x="293" 
d="M250 289c0 -202 -85 -364 -235 -484v28c106 102 188 276 188 456s-82 354 -188 456v28c150 -120 235 -282 235 -484z" />
    <glyph glyph-name="asterisk" unicode="*" horiz-adv-x="393" 
d="M350 605l-130 -39l82 -107l-29 -22l-77 111l-77 -110l-30 20l83 108l-130 39l12 34l127 -45l-4 136h36l-4 -136l129 45z" />
    <glyph glyph-name="plus" unicode="+" horiz-adv-x="502" 
d="M467 310h-194v-185h-44v185h-194v40h194v187h44v-187h194v-40z" />
    <glyph glyph-name="comma" unicode="," horiz-adv-x="165" 
d="M105 0c0 -65 -25 -114 -56 -148h-28c31 45 39 87 39 151v81h45v-84z" />
    <glyph glyph-name="hyphen" unicode="-" horiz-adv-x="330" 
d="M270 206h-210v40h210v-40z" />
    <glyph glyph-name="period" unicode="." horiz-adv-x="165" 
d="M105 0h-45v84h45v-84z" />
    <glyph glyph-name="slash" unicode="/" horiz-adv-x="372" 
d="M332 730l-247 -730h-45l247 730h45z" />
    <glyph glyph-name="zero" unicode="0" horiz-adv-x="602" 
d="M563 372c0 -211 -81 -384 -265 -384c-176 0 -259 182 -259 370c0 211 80 384 264 384c176 0 260 -182 260 -370zM516 366c0 162 -61 334 -214 334c-150 0 -216 -155 -216 -336c0 -162 64 -334 214 -334c153 0 216 155 216 336z" />
    <glyph glyph-name="one" unicode="1" horiz-adv-x="258" 
d="M186 0h-45v644c-25 -37 -79 -67 -128 -74v40c55 6 115 62 134 120h39v-730z" />
    <glyph glyph-name="two" unicode="2" horiz-adv-x="515" 
d="M472 0h-450l321 381c45 54 77 100 77 156c0 90 -68 163 -164 163c-95 0 -163 -60 -175 -149h-46c14 112 107 191 219 191c120 0 214 -88 214 -202c0 -70 -41 -127 -92 -187l-261 -309h357v-44z" />
    <glyph glyph-name="three" unicode="3" horiz-adv-x="548" 
d="M502 208c0 -133 -90 -220 -236 -220c-108 0 -199 53 -248 119l34 27c53 -64 123 -104 215 -104c108 0 188 61 188 172c0 104 -70 170 -210 170h-56v40h54c114 0 183 55 183 149c0 84 -69 139 -157 139c-82 0 -142 -38 -177 -88l-37 23c52 69 125 107 217 107
c107 0 201 -70 201 -175c0 -86 -47 -145 -122 -173c88 -22 151 -91 151 -186z" />
    <glyph glyph-name="four" unicode="4" horiz-adv-x="539" 
d="M519 196h-117v-196h-45v196h-336v32l354 502h27v-494h117v-40zM357 236v398l-280 -398h280z" />
    <glyph glyph-name="five" unicode="5" horiz-adv-x="577" 
d="M523 250c0 -142 -95 -262 -253 -262c-90 0 -175 45 -228 103l33 28c51 -54 118 -89 197 -89c126 0 204 98 204 214c0 140 -87 215 -197 215c-81 0 -137 -46 -171 -111l-35 20l21 362h376v-40h-333l-16 -259c38 40 91 70 163 70c133 0 239 -98 239 -251z" />
    <glyph glyph-name="six" unicode="6" horiz-adv-x="566" 
d="M527 247c0 -156 -108 -259 -247 -259c-138 0 -240 91 -240 243c0 204 133 380 250 499h57c-100 -92 -195 -229 -229 -328c34 46 102 78 172 78c137 0 237 -96 237 -233zM480 241c0 128 -80 197 -196 197c-104 0 -197 -87 -197 -200c0 -132 81 -205 196 -205
c117 0 197 90 197 208z" />
    <glyph glyph-name="seven" unicode="7" horiz-adv-x="505" 
d="M473 730l-358 -730h-50l340 689h-364v41h432z" />
    <glyph glyph-name="eight" unicode="8" horiz-adv-x="602" 
d="M564 201c0 -130 -119 -213 -264 -213c-144 0 -262 80 -262 212c0 85 67 168 158 190c-62 20 -118 90 -118 164c0 117 96 188 223 188s223 -71 223 -184c0 -78 -56 -148 -121 -167c94 -23 161 -91 161 -190zM477 554c0 95 -71 147 -176 147s-176 -52 -176 -144
c0 -89 62 -148 176 -148s176 59 176 145zM517 196c0 106 -74 173 -216 173c-121 0 -216 -62 -216 -165c0 -123 105 -174 215 -174c108 0 217 58 217 166z" />
    <glyph glyph-name="nine" unicode="9" horiz-adv-x="566" 
d="M518 490c0 -215 -139 -398 -249 -509l-34 33c89 79 164 191 204 290c-42 -48 -101 -71 -171 -71c-137 0 -237 109 -237 251c0 156 105 258 244 258c138 0 243 -100 243 -252zM471 484c0 141 -84 214 -198 214c-117 0 -195 -89 -195 -208c0 -122 69 -213 196 -213
c114 0 197 73 197 207z" />
    <glyph glyph-name="colon" unicode=":" horiz-adv-x="165" 
d="M105 341h-45v84h45v-84zM105 0h-45v84h45v-84z" />
    <glyph glyph-name="semicolon" unicode=";" horiz-adv-x="165" 
d="M105 341h-45v84h45v-84zM105 0c0 -65 -25 -114 -56 -148h-28c31 45 39 87 39 151v81h45v-84z" />
    <glyph glyph-name="less" unicode="&#x3c;" horiz-adv-x="350" 
d="M309 102l-271 201v43l271 199v-51l-234 -169l234 -170v-53z" />
    <glyph glyph-name="equal" unicode="=" horiz-adv-x="482" 
d="M417 388h-352v40h352v-40zM417 238h-352v40h352v-40z" />
    <glyph glyph-name="greater" unicode="&#x3e;" horiz-adv-x="350" 
d="M312 301l-271 -199v51l234 169l-234 170v53l271 -201v-43z" />
    <glyph glyph-name="question" unicode="?" horiz-adv-x="437" 
d="M390 570c0 -78 -46 -140 -90 -202c-41 -56 -79 -127 -79 -192v-45h-45v40c0 88 46 157 90 222c40 58 77 111 77 171c0 76 -61 136 -138 136c-61 0 -110 -30 -138 -86l-34 26c36 69 99 102 172 102c107 0 185 -75 185 -172zM221 0h-45v84h45v-84z" />
    <glyph glyph-name="at" unicode="@" horiz-adv-x="844" 
d="M799 395c0 -157 -95 -231 -175 -231c-41 0 -74 23 -80 58c-34 -30 -86 -58 -149 -58c-79 0 -144 44 -144 126c0 91 77 140 210 140h82v33c0 75 -58 88 -114 88c-49 0 -88 -9 -121 -29l-17 34c37 21 83 33 138 33c108 0 155 -49 155 -122v-218c0 -35 18 -49 49 -49
c58 0 131 66 131 194c0 163 -125 313 -342 313c-189 0 -343 -154 -343 -343c0 -183 155 -343 343 -343c40 0 86 6 138 30l14 -30c-55 -25 -106 -33 -152 -33c-208 0 -377 169 -377 377s169 377 377 377c228 0 377 -155 377 -347zM543 263v131h-78c-109 0 -171 -30 -171 -102
c0 -56 45 -90 101 -90c59 0 113 31 148 61z" />
    <glyph glyph-name="A" unicode="A" horiz-adv-x="626" 
d="M596 0h-48l-100 280h-270l-100 -280h-48l271 742h25zM434 320l-121 339l-121 -339h242z" />
    <glyph glyph-name="B" unicode="B" horiz-adv-x="583" 
d="M540 202c0 -147 -119 -202 -252 -202h-208v730h170c133 0 229 -60 229 -178c0 -82 -51 -141 -126 -165c68 -5 187 -52 187 -185zM432 552c0 92 -68 138 -182 138h-125v-286h133c88 0 174 47 174 148zM493 202c0 116 -116 161 -214 161h-154v-323h163
c107 0 205 44 205 162z" />
    <glyph glyph-name="C" unicode="C" horiz-adv-x="714" 
d="M672 117c-51 -60 -139 -129 -274 -129c-196 0 -353 163 -353 377c0 199 154 377 353 377c108 0 203 -44 260 -115l-32 -29c-55 63 -131 102 -229 102c-179 0 -305 -158 -305 -332c0 -191 132 -338 308 -338c111 0 177 45 241 114z" />
    <glyph glyph-name="D" unicode="D" horiz-adv-x="654" 
d="M609 372c0 -233 -167 -372 -379 -372h-150v730h150c210 0 379 -124 379 -358zM562 372c0 200 -139 318 -320 318h-117v-650h117c181 0 320 132 320 332z" />
    <glyph glyph-name="E" unicode="E" horiz-adv-x="519" 
d="M468 0h-388v730h369v-40h-324v-285h292v-40h-292v-325h343v-40z" />
    <glyph glyph-name="F" unicode="F" horiz-adv-x="446" 
d="M406 690h-281v-289h254v-40h-254v-361h-45v730h326v-40z" />
    <glyph glyph-name="G" unicode="G" horiz-adv-x="806" 
d="M770 294c-9 -164 -155 -306 -341 -306c-216 0 -384 153 -384 375c0 213 171 379 384 379c112 0 202 -42 267 -114l-30 -31c-72 77 -139 103 -240 103c-188 0 -334 -147 -334 -337c0 -202 146 -333 337 -333c142 0 266 94 292 223h-261v41h310z" />
    <glyph glyph-name="H" unicode="H" horiz-adv-x="674" 
d="M594 0h-45v362h-424v-362h-45v730h45v-328h424v328h45v-730z" />
    <glyph glyph-name="I" unicode="I" horiz-adv-x="205" 
d="M125 0h-45v730h45v-730z" />
    <glyph glyph-name="J" unicode="J" horiz-adv-x="338" 
d="M263 209c0 -140 -98 -215 -191 -215h-46v40h52c77 0 140 77 140 166v530h45v-521z" />
    <glyph glyph-name="K" unicode="K" horiz-adv-x="550" 
d="M521 0h-55l-293 384l-48 -52v-332h-45v730h45v-340l312 340h54l-288 -313z" />
    <glyph glyph-name="L" unicode="L" horiz-adv-x="484" 
d="M458 0h-378v730h45v-690h333v-40z" />
    <glyph glyph-name="M" unicode="M" horiz-adv-x="779" 
d="M699 0h-45v666l-250 -388h-30l-249 386v-664h-45v730h54l256 -398l254 398h55v-730z" />
    <glyph glyph-name="N" unicode="N" horiz-adv-x="729" 
d="M649 0h-52l-474 672s2 -25 2 -54v-618h-45v730h56l470 -669s-2 25 -2 54v615h45v-730z" />
    <glyph glyph-name="O" unicode="O" horiz-adv-x="810" 
d="M765 366c0 -213 -157 -378 -359 -378s-361 164 -361 377s159 377 361 377s359 -163 359 -376zM718 365c0 190 -133 335 -312 335c-177 0 -314 -145 -314 -335s137 -335 314 -335s312 145 312 335z" />
    <glyph glyph-name="P" unicode="P" horiz-adv-x="523" 
d="M483 532c0 -126 -85 -214 -243 -214h-115v-318h-45v730h160c162 0 243 -83 243 -198zM436 528c0 101 -61 162 -204 162h-107v-332h125c134 0 186 77 186 170z" />
    <glyph glyph-name="Q" unicode="Q" horiz-adv-x="810" 
d="M765 366c0 -126 -55 -235 -141 -303c30 -21 62 -37 84 -41l-38 -37c-27 10 -57 29 -85 51c-52 -30 -113 -48 -179 -48c-202 0 -361 164 -361 377s159 377 361 377s359 -163 359 -376zM718 365c0 190 -133 335 -312 335c-177 0 -314 -145 -314 -335s137 -335 314 -335
c53 0 103 13 146 36c-23 22 -42 45 -52 63l32 22c10 -18 31 -40 56 -61c80 60 130 159 130 275z" />
    <glyph glyph-name="R" unicode="R" horiz-adv-x="542" 
d="M496 0h-58l-313 350v-350h-45v730h179c124 0 231 -75 231 -202c0 -134 -111 -209 -242 -209h-35zM443 528c0 110 -87 162 -184 162h-134v-331h123c103 0 195 51 195 169z" />
    <glyph glyph-name="S" unicode="S" horiz-adv-x="482" 
d="M442 174c0 -109 -99 -186 -205 -186c-70 0 -142 28 -192 76l29 32c45 -40 100 -66 163 -66c84 0 158 57 158 142c0 104 -85 147 -169 191c-86 45 -171 92 -171 204c0 107 85 175 182 175c75 0 134 -21 185 -79l-34 -29c-45 52 -89 66 -151 66c-70 0 -135 -47 -135 -133
c0 -91 79 -130 161 -173c88 -46 179 -96 179 -220z" />
    <glyph glyph-name="T" unicode="T" horiz-adv-x="476" 
d="M446 690h-185v-690h-45v690h-186v40h416v-40z" />
    <glyph glyph-name="U" unicode="U" horiz-adv-x="671" 
d="M596 265c0 -167 -116 -277 -261 -277s-260 110 -260 277v465h45v-465c0 -134 96 -235 215 -235s216 101 216 235v465h45v-465z" />
    <glyph glyph-name="V" unicode="V" horiz-adv-x="657" 
d="M627 730l-300 -759l-297 759h48l241 -617c5 -12 10 -31 10 -31s5 19 9 30l244 618h45z" />
    <glyph glyph-name="W" unicode="W" horiz-adv-x="928" 
d="M898 730l-222 -730h-34l-169 606c-3 11 -6 30 -6 30s-3 -19 -6 -29l-170 -607h-34l-227 730h48l188 -616c3 -11 8 -27 8 -27s3 15 6 25l170 618h32l172 -618c3 -10 6 -25 6 -25s5 16 8 27l183 616h47z" />
    <glyph glyph-name="X" unicode="X" horiz-adv-x="677" 
d="M647 0h-54l-253 361l-257 -361h-53l284 397l-236 333h52l210 -295l211 295h49l-234 -333z" />
    <glyph glyph-name="Y" unicode="Y" horiz-adv-x="628" 
d="M600 730l-265 -382v-348h-45v349l-262 381h52l235 -340l234 340h51z" />
    <glyph glyph-name="Z" unicode="Z" horiz-adv-x="627" 
d="M575 0h-531l454 690h-402v40h477l-453 -690h455v-40z" />
    <glyph glyph-name="bracketleft" unicode="[" horiz-adv-x="255" 
d="M225 -179h-150v909h150v-37h-107v-835h107v-37z" />
    <glyph glyph-name="backslash" unicode="\" horiz-adv-x="372" 
d="M332 0h-45l-247 730h45z" />
    <glyph glyph-name="bracketright" unicode="]" horiz-adv-x="255" 
d="M180 -179h-150v37h107v835h-107v37h150v-909z" />
    <glyph glyph-name="asciicircum" unicode="^" horiz-adv-x="483" 
d="M440 369h-48l-153 312l-152 -312h-50l181 361h43z" />
    <glyph glyph-name="underscore" unicode="_" horiz-adv-x="500" 
d="M500 -103h-500v40h500v-40z" />
    <glyph glyph-name="quoteleft" unicode="&#x2018;" horiz-adv-x="165" 
d="M129 730c-24 -34 -24 -67 -24 -106v-71h-45v69c0 36 16 80 41 108h28z" />
    <glyph glyph-name="a" unicode="a" horiz-adv-x="426" 
d="M368 0h-41v46c-34 -30 -85 -58 -148 -58c-79 0 -144 44 -144 126c0 94 77 140 210 140h82v33c0 75 -58 88 -114 88c-49 0 -88 -9 -121 -29l-17 34c37 21 83 33 138 33c108 0 155 -49 155 -122v-291zM327 87v131h-78c-109 0 -171 -30 -171 -104c0 -56 45 -88 101 -88
c59 0 113 31 148 61z" />
    <glyph glyph-name="b" unicode="b" horiz-adv-x="486" 
d="M453 200c0 -111 -74 -212 -195 -212c-72 0 -130 46 -152 95v-83h-41v730h41v-412c22 49 81 95 153 95c114 0 194 -78 194 -213zM410 199c0 107 -54 176 -154 176c-87 0 -150 -85 -150 -173c0 -99 65 -176 155 -176c97 0 149 84 149 173z" />
    <glyph glyph-name="c" unicode="c" horiz-adv-x="428" 
d="M403 87c-36 -56 -94 -99 -171 -99c-114 0 -199 94 -199 214c0 118 86 211 196 211c87 0 137 -41 167 -77l-33 -26c-32 40 -73 65 -128 65c-94 0 -159 -77 -159 -171c0 -97 65 -178 153 -178c64 0 107 31 142 82z" />
    <glyph glyph-name="d" unicode="d" horiz-adv-x="486" 
d="M421 0h-41v83c-22 -49 -87 -95 -159 -95c-117 0 -188 99 -188 210c0 135 90 215 197 215c70 0 128 -46 150 -95v412h41v-730zM380 202c0 88 -62 173 -154 173c-90 0 -150 -67 -150 -174c0 -93 50 -175 148 -175c90 0 156 77 156 176z" />
    <glyph glyph-name="e" unicode="e" horiz-adv-x="444" 
d="M416 206h-340c1 -102 59 -180 162 -180c59 0 103 22 140 60l29 -25c-28 -35 -86 -73 -171 -73c-137 0 -203 104 -203 219c0 104 64 206 197 206c128 0 181 -104 186 -207zM366 242c-5 62 -49 133 -138 133c-94 0 -139 -61 -150 -133h288z" />
    <glyph glyph-name="f" unicode="f" horiz-adv-x="203" 
d="M192 365h-74v-365h-41v365h-70v36h70v241c0 62 35 88 81 88h34v-38h-31c-26 0 -43 -13 -43 -57v-234h74v-36z" />
    <glyph glyph-name="g" unicode="g" horiz-adv-x="486" 
d="M421 3c0 -122 -86 -194 -193 -194c-65 0 -129 24 -174 71l29 26c35 -38 89 -59 147 -59c81 0 150 54 150 153v83c-22 -49 -81 -95 -153 -95c-114 0 -194 78 -194 213c0 111 74 212 195 212c72 0 130 -46 152 -95v83h41v-398zM380 199c0 99 -65 176 -155 176
c-97 0 -149 -84 -149 -173c0 -107 54 -176 154 -176c87 0 150 85 150 173z" />
    <glyph glyph-name="h" unicode="h" horiz-adv-x="448" 
d="M390 0h-41v265c0 64 -40 112 -110 112c-79 0 -133 -70 -133 -131v-246h-41v730h41v-395c25 47 76 78 135 78c94 0 149 -62 149 -142v-271z" />
    <glyph glyph-name="i" unicode="i" horiz-adv-x="171" 
d="M106 513h-41v80h41v-80zM106 0h-41v401h41v-401z" />
    <glyph glyph-name="j" unicode="j" horiz-adv-x="171" 
d="M106 513h-41v80h41v-80zM106 -131c0 -37 -28 -57 -66 -57c-18 0 -33 2 -44 5l-8 36c11 -4 27 -6 41 -6c21 0 36 9 36 33v521h41v-532z" />
    <glyph glyph-name="k" unicode="k" horiz-adv-x="412" 
d="M395 0h-56l-182 201l-51 -48v-153h-41v730h41v-526l208 197h58l-186 -173z" />
    <glyph glyph-name="l" unicode="l" horiz-adv-x="171" 
d="M106 0h-41v730h41v-730z" />
    <glyph glyph-name="m" unicode="m" horiz-adv-x="698" 
d="M640 0h-41v265c0 64 -32 112 -91 112c-75 0 -135 -63 -135 -130v-247h-41v265c0 64 -24 112 -91 112c-75 0 -135 -64 -135 -131v-246h-41v401h41v-66c24 46 76 78 135 78c69 0 108 -33 123 -81c28 46 84 81 144 81c88 0 132 -62 132 -142v-271z" />
    <glyph glyph-name="n" unicode="n" horiz-adv-x="448" 
d="M390 0h-41v265c0 64 -40 112 -110 112c-79 0 -133 -70 -133 -131v-246h-41v401h41v-66c25 47 76 78 135 78c94 0 149 -62 149 -142v-271z" />
    <glyph glyph-name="o" unicode="o" horiz-adv-x="490" 
d="M457 201c0 -125 -95 -213 -212 -213s-212 88 -212 213s95 212 212 212s212 -87 212 -212zM414 201c0 101 -72 174 -169 174s-169 -73 -169 -174s72 -175 169 -175s169 74 169 175z" />
    <glyph glyph-name="p" unicode="p" horiz-adv-x="486" 
d="M453 203c0 -135 -90 -215 -197 -215c-70 0 -128 46 -150 95v-262h-41v580h41v-83c22 49 87 95 159 95c117 0 188 -99 188 -210zM410 200c0 93 -50 175 -148 175c-90 0 -156 -77 -156 -176c0 -88 62 -173 154 -173c90 0 150 67 150 174z" />
    <glyph glyph-name="q" unicode="q" horiz-adv-x="486" 
d="M421 -179h-41v262c-22 -49 -81 -95 -153 -95c-114 0 -194 78 -194 213c0 111 74 212 195 212c72 0 130 -46 152 -95v83h41v-580zM380 199c0 99 -65 176 -155 176c-97 0 -149 -84 -149 -173c0 -107 54 -176 154 -176c87 0 150 85 150 173z" />
    <glyph glyph-name="r" unicode="r" horiz-adv-x="301" 
d="M290 383l-24 -31c-17 16 -34 25 -59 25c-53 0 -101 -71 -101 -133v-244h-41v401h41v-60c18 39 56 72 105 72c32 0 55 -7 79 -30z" />
    <glyph glyph-name="s" unicode="s" horiz-adv-x="358" 
d="M319 104c0 -69 -72 -116 -140 -116c-51 0 -107 19 -139 45l25 32c29 -23 73 -39 114 -39c49 0 97 33 97 78c0 57 -52 72 -113 89c-59 16 -117 44 -117 115c0 69 69 105 129 105c49 0 90 -13 130 -44l-24 -30c-33 25 -66 37 -108 37c-41 0 -85 -23 -85 -66
c0 -46 37 -63 97 -80c65 -18 134 -40 134 -126z" />
    <glyph glyph-name="t" unicode="t" horiz-adv-x="226" 
d="M192 0h-29c-55 0 -90 36 -90 85v280h-63v36h63v188h41v-188h77v-36h-77v-281c0 -23 17 -48 53 -48h25v-36z" />
    <glyph glyph-name="u" unicode="u" horiz-adv-x="448" 
d="M383 0h-41v66c-25 -47 -76 -78 -135 -78c-94 0 -149 62 -149 142v271h41v-265c0 -64 40 -112 110 -112c79 0 133 70 133 131v246h41v-401z" />
    <glyph glyph-name="v" unicode="v" horiz-adv-x="403" 
d="M386 401l-184 -424l-185 424h44l141 -329l143 329h41z" />
    <glyph glyph-name="w" unicode="w" horiz-adv-x="627" 
d="M610 401l-167 -424l-128 319l-127 -319l-171 424h44l128 -318l126 318l129 -315l123 315h43z" />
    <glyph glyph-name="x" unicode="x" horiz-adv-x="405" 
d="M385 0h-50l-133 185l-135 -185h-47l158 218l-134 183h48l110 -151l109 151h48l-132 -182z" />
    <glyph glyph-name="y" unicode="y" horiz-adv-x="396" 
d="M379 401l-200 -508c-19 -48 -52 -82 -98 -82c-25 0 -43 4 -59 12v40c16 -10 30 -15 49 -15c39 0 61 31 75 67l35 87l-164 399h44l143 -345l134 345h41z" />
    <glyph glyph-name="z" unicode="z" horiz-adv-x="418" 
d="M390 401l-291 -363h273v-38h-351l290 363h-252v38h331z" />
    <glyph glyph-name="braceleft" unicode="{" horiz-adv-x="260" 
d="M241 -179c-127 61 -146 120 -146 267c0 84 -6 174 -70 174v46c64 0 70 90 70 174c0 147 19 206 146 267v-38c-80 -56 -101 -87 -101 -215c0 -103 -3 -177 -72 -211c69 -34 72 -108 72 -211c0 -128 21 -159 101 -215v-38z" />
    <glyph glyph-name="bar" unicode="|" horiz-adv-x="203" 
d="M123 -179h-43v909h43v-909z" />
    <glyph glyph-name="braceright" unicode="}" horiz-adv-x="260" 
d="M235 262c-64 0 -70 -90 -70 -174c0 -147 -19 -206 -146 -267v38c80 56 101 87 101 215c0 103 3 177 72 211c-69 34 -72 108 -72 211c0 128 -21 159 -101 215v38c127 -61 146 -120 146 -267c0 -84 6 -174 70 -174v-46z" />
    <glyph glyph-name="asciitilde" unicode="~" horiz-adv-x="440" 
d="M390 427c-3 -46 -21 -119 -93 -119c-28 0 -59 22 -87 44c-25 19 -48 37 -66 37c-27 0 -49 -24 -51 -79h-43c3 46 23 119 93 119c27 0 58 -22 85 -42s51 -39 68 -39c27 0 49 26 51 79h43z" />
    <glyph glyph-name="exclamdown" unicode="&#xa1;" horiz-adv-x="189" 
d="M117 646h-45v84h45v-84zM117 0h-45v430l10 171h25l10 -171v-430z" />
    <glyph glyph-name="cent" unicode="&#xa2;" horiz-adv-x="440" 
d="M403 87c-33 -51 -83 -91 -150 -98v-68h-40v68c-104 10 -180 100 -180 213c0 112 78 202 180 210v83h40v-83c72 -7 116 -43 143 -76l-33 -26c-28 36 -64 59 -110 64v-346c51 6 88 36 118 80zM213 27v347c-82 -11 -137 -84 -137 -170c0 -91 57 -168 137 -177z" />
    <glyph glyph-name="sterling" unicode="&#xa3;" horiz-adv-x="524" 
d="M491 137c-2 -98 -37 -149 -113 -149c-52 0 -90 33 -129 62c-28 -41 -71 -62 -119 -62c-39 0 -83 28 -83 67c0 44 30 77 97 77c34 0 62 -11 87 -25c6 17 9 35 9 53c0 19 -2 37 -6 54h-150v36h140c-6 17 -14 33 -23 48h-117v36h94c-48 66 -105 122 -105 215
c0 122 83 193 199 193c124 0 189 -97 197 -171h-47c-17 84 -75 129 -153 129c-94 0 -149 -58 -149 -147c0 -94 65 -147 112 -219h144v-36h-123c8 -15 14 -31 19 -48h104v-36h-97c2 -12 3 -25 3 -39c0 -35 -5 -66 -15 -91c38 -28 72 -56 114 -56c54 0 67 51 68 109h42z
M215 73c-22 14 -46 23 -74 23c-33 0 -52 -15 -52 -37s19 -35 47 -35c33 0 61 20 79 49z" />
    <glyph glyph-name="fraction" unicode="&#x2044;" horiz-adv-x="382" 
d="M426 730l-423 -730h-47l423 730h47z" />
    <glyph glyph-name="yen" unicode="&#xa5;" horiz-adv-x="628" 
d="M600 730l-265 -382v-78h183v-37h-183v-79h183v-37h-183v-117h-45v117h-200v37h200v79h-200v37h200v79l-262 381h52l235 -340l234 340h51z" />
    <glyph glyph-name="florin" unicode="&#x192;" horiz-adv-x="241" 
d="M236 730l-3 -38h-31c-26 0 -45 -20 -48 -57l-21 -234h69l-3 -36h-69l-40 -456c-5 -62 -42 -88 -88 -88h-34l3 38h31c26 0 45 20 48 57l39 449h-55l3 36h55l21 241c5 62 43 88 89 88h34z" />
    <glyph glyph-name="section" unicode="&#xa7;" horiz-adv-x="629" 
d="M594 235c0 -81 -54 -153 -125 -184c29 -22 48 -51 48 -88c0 -88 -78 -154 -205 -154c-84 0 -170 41 -203 77l30 32c34 -40 116 -67 175 -67c110 0 156 53 156 106c0 67 -72 87 -199 133c-116 42 -241 94 -241 226c0 81 54 153 125 184c-29 22 -48 51 -48 88
c0 88 78 154 205 154c84 0 170 -41 203 -77l-30 -32c-34 40 -116 67 -175 67c-110 0 -156 -53 -156 -106c0 -67 72 -87 199 -133c116 -42 241 -94 241 -226zM547 229c0 113 -91 149 -226 197c-45 16 -90 31 -127 50c-69 -27 -117 -87 -117 -154c0 -113 91 -149 226 -197
c45 -16 90 -31 127 -50c69 27 117 87 117 154z" />
    <glyph glyph-name="currency" unicode="&#xa4;" 
d="M407 688h-84v42h84v-42zM730 323h-42v84h42v-84zM407 323h-84v84h84v-84zM42 323h-42v84h42v-84zM407 0h-84v42h84v-42z" />
    <glyph glyph-name="quotesingle" unicode="'" horiz-adv-x="165" 
d="M105 643l-10 -90h-25l-10 90v87h45v-87z" />
    <glyph glyph-name="quotedblleft" unicode="&#x201c;" horiz-adv-x="280" 
d="M244 730c-24 -34 -24 -67 -24 -106v-71h-45v69c0 36 16 80 41 108h28zM129 730c-24 -34 -24 -67 -24 -106v-71h-45v69c0 36 16 80 41 108h28z" />
    <glyph glyph-name="guillemotleft" unicode="&#xab;" horiz-adv-x="310" 
d="M281 115h-51l-102 103l102 103h51l-98 -103zM173 115h-51l-102 103l102 103h51l-98 -103z" />
    <glyph glyph-name="guilsinglleft" unicode="&#x2039;" horiz-adv-x="202" 
d="M173 115h-51l-102 103l102 103h51l-98 -103z" />
    <glyph glyph-name="guilsinglright" unicode="&#x203a;" horiz-adv-x="202" 
d="M182 218l-102 -103h-51l98 103l-98 103h51z" />
    <glyph glyph-name="fi" unicode="&#xfb01;" horiz-adv-x="374" 
d="M309 513h-41v80h41v-80zM309 0h-41v401h41v-401zM192 365h-74v-365h-41v365h-70v36h70v241c0 62 35 88 81 88h34v-38h-31c-26 0 -43 -13 -43 -57v-234h74v-36z" />
    <glyph glyph-name="fl" unicode="&#xfb02;" horiz-adv-x="374" 
d="M309 0h-41v730h41v-730zM192 365h-74v-365h-41v365h-70v36h70v241c0 62 35 88 81 88h34v-38h-31c-26 0 -43 -13 -43 -57v-234h74v-36z" />
    <glyph glyph-name="endash" unicode="&#x2013;" horiz-adv-x="410" 
d="M350 206h-290v40h290v-40z" />
    <glyph glyph-name="dagger" unicode="&#x2020;" horiz-adv-x="503" 
d="M483 402h-211v-581h-41v581h-211v36h211v292h41v-292h211v-36z" />
    <glyph glyph-name="daggerdbl" unicode="&#x2021;" horiz-adv-x="503" 
d="M483 126h-211v-305h-41v305h-211v36h211v240h-211v36h211v292h41v-292h211v-36h-211v-240h211v-36z" />
    <glyph glyph-name="periodcentered" unicode="&#xb7;" horiz-adv-x="165" 
d="M105 317h-45v84h45v-84z" />
    <glyph glyph-name="paragraph" unicode="&#xb6;" horiz-adv-x="617" 
d="M545 -179h-43v871h-84v-871h-43v426h-99c-137 0 -249 110 -249 238c0 139 104 245 259 245h259v-909zM375 285v407h-84c-132 0 -219 -87 -219 -201c0 -118 89 -206 223 -206h80z" />
    <glyph glyph-name="bullet" unicode="&#x2022;" horiz-adv-x="296" 
d="M226 379c0 -43 -35 -78 -78 -78s-78 35 -78 78s35 78 78 78s78 -35 78 -78z" />
    <glyph glyph-name="quotesinglbase" unicode="&#x201a;" horiz-adv-x="165" 
d="M105 15c0 -36 -16 -80 -41 -108h-28c24 34 24 67 24 106v71h45v-69z" />
    <glyph glyph-name="quotedblbase" unicode="&#x201e;" horiz-adv-x="280" 
d="M220 15c0 -36 -16 -80 -41 -108h-28c24 34 24 67 24 106v71h45v-69zM105 15c0 -36 -16 -80 -41 -108h-28c24 34 24 67 24 106v71h45v-69z" />
    <glyph glyph-name="quotedblright" unicode="&#x201d;" horiz-adv-x="280" 
d="M220 661c0 -36 -16 -80 -41 -108h-28c24 34 24 67 24 106v71h45v-69zM105 661c0 -36 -16 -80 -41 -108h-28c24 34 24 67 24 106v71h45v-69z" />
    <glyph glyph-name="guillemotright" unicode="&#xbb;" horiz-adv-x="310" 
d="M290 218l-102 -103h-51l98 103l-98 103h51zM182 218l-102 -103h-51l98 103l-98 103h51z" />
    <glyph glyph-name="ellipsis" unicode="&#x2026;" horiz-adv-x="505" 
d="M445 0h-45v84h45v-84zM275 0h-45v84h45v-84zM105 0h-45v84h45v-84z" />
    <glyph glyph-name="perthousand" unicode="&#x2030;" horiz-adv-x="1050" 
d="M1010 179c0 -108 -55 -191 -144 -191c-71 0 -140 62 -140 188c0 107 55 189 143 189c91 0 141 -85 141 -186zM334 556c0 -108 -55 -191 -144 -191c-71 0 -140 62 -140 188c0 107 55 189 143 189c91 0 141 -85 141 -186zM635 730l-499 -730h-51l499 730h51zM680 179
c0 -108 -55 -191 -144 -191c-71 0 -140 62 -140 188c0 107 55 189 143 189c91 0 141 -85 141 -186zM965 176c0 81 -33 149 -96 149s-98 -63 -98 -149c0 -84 32 -148 95 -148c67 0 99 65 99 148zM289 553c0 81 -33 149 -96 149s-98 -63 -98 -149c0 -84 32 -148 95 -148
c67 0 99 65 99 148zM635 176c0 81 -33 149 -96 149s-98 -63 -98 -149c0 -84 32 -148 95 -148c67 0 99 65 99 148z" />
    <glyph glyph-name="questiondown" unicode="&#xbf;" horiz-adv-x="437" 
d="M261 646h-45v84h45v-84zM404 90c-36 -69 -99 -102 -172 -102c-107 0 -185 75 -185 172c0 78 46 140 90 202c41 56 79 127 79 192v45h45v-40c0 -88 -46 -157 -90 -222c-40 -58 -77 -111 -77 -171c0 -76 61 -136 138 -136c61 0 110 30 138 86z" />
    <glyph glyph-name="grave" unicode="`" horiz-adv-x="440" 
d="M282 484h-47l-82 130h47z" />
    <glyph glyph-name="acute" unicode="&#xb4;" horiz-adv-x="440" 
d="M276 614l-82 -130h-47l82 130h47z" />
    <glyph glyph-name="circumflex" unicode="&#x2c6;" horiz-adv-x="440" 
d="M337 484h-49l-68 85l-68 -85h-49l101 124h32z" />
    <glyph glyph-name="tilde" unicode="&#x2dc;" horiz-adv-x="440" 
d="M350 561c-3 -46 -18 -79 -73 -79c-22 0 -44 12 -64 23c-19 11 -36 20 -50 20c-21 0 -31 -16 -32 -41h-41c3 46 19 79 73 79c20 0 41 -10 60 -20c21 -12 40 -23 54 -23c21 0 31 16 32 41h41z" />
    <glyph glyph-name="macron" unicode="&#xaf;" horiz-adv-x="440" 
d="M350 484h-260v36h260v-36z" />
    <glyph glyph-name="breve" unicode="&#x2d8;" horiz-adv-x="440" 
d="M348 607c0 -79 -55 -127 -128 -127s-128 48 -128 127h45c0 -51 30 -88 83 -88c52 0 83 37 83 88h45z" />
    <glyph glyph-name="dotaccent" unicode="&#x2d9;" horiz-adv-x="440" 
d="M243 484h-46v84h46v-84z" />
    <glyph glyph-name="dieresis" unicode="&#xa8;" horiz-adv-x="440" 
d="M321 484h-46v84h46v-84zM165 484h-46v84h46v-84z" />
    <glyph glyph-name="ring" unicode="&#x2da;" horiz-adv-x="440" 
d="M316 573c0 -53 -43 -96 -96 -96s-96 43 -96 96s43 96 96 96s96 -43 96 -96zM282 573c0 34 -28 62 -62 62s-62 -28 -62 -62s28 -62 62 -62s62 28 62 62z" />
    <glyph glyph-name="cedilla" unicode="&#xb8;" horiz-adv-x="440" 
d="M288 -104c0 -54 -46 -75 -93 -75c-33 0 -72 16 -91 32l19 25c14 -12 49 -24 73 -24c28 0 50 11 50 36c0 21 -15 36 -49 36c-14 0 -31 -3 -43 -8l-11 17l59 78h43l-44 -60c51 5 87 -20 87 -57z" />
    <glyph glyph-name="hungarumlaut" unicode="&#x2dd;" horiz-adv-x="440" 
d="M336 614l-82 -130h-47l82 130h47zM217 614l-82 -130h-47l82 130h47z" />
    <glyph glyph-name="ogonek" unicode="&#x2db;" horiz-adv-x="440" 
d="M304 -143c-19 -21 -58 -36 -87 -36c-55 0 -102 27 -102 81c0 37 32 80 91 110h49c-67 -38 -95 -76 -95 -106c0 -35 22 -48 62 -48c22 0 46 9 64 24z" />
    <glyph glyph-name="caron" unicode="&#x2c7;" horiz-adv-x="440" 
d="M337 608l-101 -124h-32l-101 124h49l68 -85l68 85h49z" />
    <glyph glyph-name="emdash" unicode="&#x2014;" horiz-adv-x="570" 
d="M510 206h-450v40h450v-40z" />
    <glyph glyph-name="AE" unicode="&#xc6;" horiz-adv-x="896" 
d="M845 0h-388v240h-257l-140 -240h-46l423 730h389v-40h-324v-285h292v-40h-292v-325h343v-40zM457 280v407l-234 -407h234z" />
    <glyph glyph-name="ordfeminine" unicode="&#xaa;" horiz-adv-x="421" 
d="M338 401h-38v36c-28 -25 -66 -46 -118 -46c-65 0 -119 37 -119 104c0 78 64 116 173 116h64v27c0 57 -44 69 -90 69c-40 0 -72 -8 -99 -24l-15 32c31 17 69 27 114 27c89 0 128 -40 128 -101v-240zM347 302h-284v34h284v-34zM300 476v101h-60c-91 0 -137 -24 -137 -82
c0 -43 33 -68 79 -68c49 0 89 24 118 49z" />
    <glyph glyph-name="Lslash" unicode="&#x141;" horiz-adv-x="494" 
d="M468 0h-378v288l-44 -18l-18 39l62 25v396h45v-378l156 63l17 -39l-173 -70v-266h333v-40z" />
    <glyph glyph-name="Oslash" unicode="&#xd8;" horiz-adv-x="810" 
d="M765 366c0 -213 -157 -378 -359 -378c-90 0 -171 32 -234 87l-77 -87l-29 26l78 88c-61 68 -99 160 -99 263c0 213 159 377 361 377c89 0 169 -31 231 -85l75 85l31 -24l-78 -88c63 -67 100 -159 100 -264zM718 365c0 91 -31 172 -83 232l-434 -489
c55 -49 126 -78 205 -78c177 0 312 145 312 335zM608 625c-53 47 -123 75 -202 75c-177 0 -314 -145 -314 -335c0 -90 31 -170 82 -229z" />
    <glyph glyph-name="OE" unicode="&#x152;" horiz-adv-x="1157" 
d="M1106 0h-388v175c-61 -113 -177 -187 -312 -187c-202 0 -361 164 -361 377s159 377 361 377c135 0 251 -73 312 -186v174h369v-40h-324v-285h292v-40h-292v-325h343v-40zM718 365c0 190 -133 335 -312 335c-177 0 -314 -145 -314 -335s137 -335 314 -335s312 145 312 335
z" />
    <glyph glyph-name="ordmasculine" unicode="&#xba;" horiz-adv-x="476" 
d="M410 568c0 -103 -78 -176 -175 -176s-175 73 -175 176s78 175 175 175s175 -72 175 -175zM403 302h-336v34h336v-34zM370 568c0 80 -58 139 -135 139s-135 -59 -135 -139s58 -141 135 -141s135 61 135 141z" />
    <glyph glyph-name="ae" unicode="&#xe6;" horiz-adv-x="728" 
d="M700 206h-331c1 -102 60 -180 163 -180c59 0 93 22 130 60l29 -25c-28 -35 -76 -73 -161 -73c-77 0 -140 40 -166 87c-43 -46 -112 -87 -185 -87c-79 0 -144 44 -144 126c0 94 77 128 200 128h94v35c0 90 -60 98 -116 98c-49 0 -88 -9 -121 -29l-17 34
c37 21 83 33 138 33c92 0 142 -35 148 -89c28 55 88 89 160 89c125 0 174 -104 179 -207zM650 242c-5 62 -42 133 -131 133c-90 0 -137 -61 -148 -133h279zM345 110c-11 29 -16 60 -16 96h-90c-101 0 -161 -22 -161 -92c0 -56 45 -88 101 -88c73 0 136 47 166 84z" />
    <glyph glyph-name="dotlessi" unicode="&#x131;" horiz-adv-x="171" 
d="M106 0h-41v401h41v-401z" />
    <glyph glyph-name="lslash" unicode="&#x142;" horiz-adv-x="221" 
d="M200 340l-69 -28v-312h-41v295l-52 -21l-18 39l70 28v389h41v-372l52 21z" />
    <glyph glyph-name="oslash" unicode="&#xf8;" horiz-adv-x="490" 
d="M460 389l-50 -51c29 -36 47 -83 47 -137c0 -125 -95 -213 -212 -213c-51 0 -98 17 -134 46l-45 -46l-26 26l44 45c-32 36 -51 85 -51 142c0 125 95 212 212 212c53 0 102 -18 139 -49l48 49zM356 335c-30 26 -68 40 -111 40c-97 0 -169 -73 -169 -174
c0 -44 14 -83 37 -113zM414 201c0 42 -12 78 -33 107l-242 -246c28 -23 65 -36 106 -36c97 0 169 74 169 175z" />
    <glyph glyph-name="oe" unicode="&#x153;" horiz-adv-x="810" 
d="M782 206h-336c1 -106 60 -180 163 -180c59 0 98 22 135 60l29 -25c-28 -35 -81 -73 -166 -73c-93 0 -155 50 -182 119c-27 -70 -102 -119 -185 -119c-117 0 -207 88 -207 213s90 212 207 212c81 0 155 -44 184 -115c24 65 87 115 177 115c124 0 176 -104 181 -207z
M732 242c-5 62 -47 133 -133 133c-94 0 -140 -61 -151 -133h284zM405 201c0 101 -66 174 -165 174c-97 0 -164 -73 -164 -174s67 -175 164 -175s165 74 165 175z" />
    <glyph glyph-name="germandbls" unicode="&#xdf;" horiz-adv-x="441" 
d="M408 161c0 -90 -57 -173 -150 -173c-45 0 -78 10 -95 22l18 32c18 -11 40 -16 77 -16c62 0 107 60 107 135c0 133 -96 229 -192 246v31c73 3 149 55 149 148c0 82 -49 118 -114 118c-62 0 -102 -46 -102 -120v-584h-41v582c0 94 50 160 146 160c77 0 154 -49 154 -156
c0 -81 -52 -143 -120 -166c71 -25 163 -128 163 -259z" />
    <glyph glyph-name="NUL" horiz-adv-x="0" 
 />
    <glyph glyph-name="Eth" unicode="&#xd0;" horiz-adv-x="672" 
d="M627 372c0 -233 -172 -372 -379 -372h-150v361h-60v40h60v329h150c207 0 379 -125 379 -358zM580 372c0 200 -139 318 -320 318h-117v-289h165v-40h-165v-321h117c181 0 320 132 320 332z" />
    <glyph glyph-name="eth" unicode="&#xf0;" horiz-adv-x="502" 
d="M469 212c0 -103 -73 -224 -224 -224c-116 0 -212 87 -212 223c0 112 102 202 217 202c63 0 124 -26 161 -77c-11 60 -49 166 -128 265l-134 -54l-16 32l126 51c-29 32 -62 63 -101 92l25 27c42 -31 80 -66 113 -104l74 30l15 -32l-65 -27c99 -125 149 -277 149 -404z
M424 201c0 101 -77 174 -174 174s-174 -73 -174 -174s77 -175 174 -175s174 74 174 175z" />
    <glyph glyph-name="Scaron" unicode="&#x160;" horiz-adv-x="482" 
d="M442 174c0 -109 -99 -186 -205 -186c-70 0 -142 28 -192 76l29 32c45 -40 100 -66 163 -66c84 0 158 57 158 142c0 104 -85 147 -169 191c-86 45 -171 92 -171 204c0 107 85 175 182 175c75 0 134 -21 185 -79l-34 -29c-45 52 -89 66 -151 66c-70 0 -135 -47 -135 -133
c0 -91 79 -130 161 -173c88 -46 179 -96 179 -220zM354 914l-101 -124h-32l-101 124h49l68 -85l68 85h49z" />
    <glyph glyph-name="scaron" unicode="&#x161;" horiz-adv-x="358" 
d="M319 104c0 -69 -72 -116 -140 -116c-51 0 -107 19 -139 45l25 32c29 -23 73 -39 114 -39c49 0 97 33 97 78c0 57 -52 72 -113 89c-59 16 -117 44 -117 115c0 69 69 105 129 105c49 0 90 -13 130 -44l-24 -30c-33 25 -66 37 -108 37c-41 0 -85 -23 -85 -66
c0 -46 37 -63 97 -80c65 -18 134 -40 134 -126zM291 608l-101 -124h-32l-101 124h49l68 -85l68 85h49z" />
    <glyph glyph-name="Yacute" unicode="&#xdd;" horiz-adv-x="628" 
d="M600 730l-265 -382v-348h-45v349l-262 381h52l235 -340l234 340h51zM403 910l-82 -130h-47l82 130h47z" />
    <glyph glyph-name="yacute" unicode="&#xfd;" horiz-adv-x="396" 
d="M379 401l-200 -508c-19 -48 -52 -82 -98 -82c-25 0 -43 4 -59 12v40c16 -10 30 -15 49 -15c39 0 61 31 75 67l35 87l-164 399h44l143 -345l134 345h41zM296 614l-82 -130h-47l82 130h47z" />
    <glyph glyph-name="Thorn" unicode="&#xde;" horiz-adv-x="523" 
d="M483 389c0 -126 -85 -214 -243 -214h-115v-175h-45v730h45v-143h115c162 0 243 -83 243 -198zM436 385c0 101 -61 162 -204 162h-107v-332h125c134 0 186 77 186 170z" />
    <glyph glyph-name="thorn" unicode="&#xfe;" horiz-adv-x="486" 
d="M453 203c0 -135 -90 -215 -197 -215c-70 0 -128 46 -150 95v-262h-41v909h41v-412c22 49 87 95 159 95c117 0 188 -99 188 -210zM410 200c0 93 -50 175 -148 175c-90 0 -156 -77 -156 -176c0 -88 62 -173 154 -173c90 0 150 67 150 174z" />
    <glyph glyph-name="Zcaron" unicode="&#x17d;" horiz-adv-x="627" 
d="M575 0h-531l454 690h-402v40h477l-453 -690h455v-40zM440 914l-101 -124h-32l-101 124h49l68 -85l68 85h49z" />
    <glyph glyph-name="zcaron" unicode="&#x17e;" horiz-adv-x="418" 
d="M390 401l-291 -363h273v-38h-351l290 363h-252v38h331zM334 608l-101 -124h-32l-101 124h49l68 -85l68 85h49z" />
    <glyph glyph-name="onehalf" unicode="&#xbd;" 
d="M407 688h-84v42h84v-42zM730 323h-42v84h42v-84zM407 323h-84v84h84v-84zM42 323h-42v84h42v-84zM407 0h-84v42h84v-42z" />
    <glyph glyph-name="onequarter" unicode="&#xbc;" 
d="M407 688h-84v42h84v-42zM730 323h-42v84h42v-84zM407 323h-84v84h84v-84zM42 323h-42v84h42v-84zM407 0h-84v42h84v-42z" />
    <glyph glyph-name="onesuperior" unicode="&#xb9;" 
d="M407 688h-84v42h84v-42zM730 323h-42v84h42v-84zM407 323h-84v84h84v-84zM42 323h-42v84h42v-84zM407 0h-84v42h84v-42z" />
    <glyph glyph-name="threequarters" unicode="&#xbe;" 
d="M407 688h-84v42h84v-42zM730 323h-42v84h42v-84zM407 323h-84v84h84v-84zM42 323h-42v84h42v-84zM407 0h-84v42h84v-42z" />
    <glyph glyph-name="threesuperior" unicode="&#xb3;" 
d="M407 688h-84v42h84v-42zM730 323h-42v84h42v-84zM407 323h-84v84h84v-84zM42 323h-42v84h42v-84zM407 0h-84v42h84v-42z" />
    <glyph glyph-name="twosuperior" unicode="&#xb2;" 
d="M407 688h-84v42h84v-42zM730 323h-42v84h42v-84zM407 323h-84v84h84v-84zM42 323h-42v84h42v-84zM407 0h-84v42h84v-42z" />
    <glyph glyph-name="brokenbar" unicode="&#xa6;" 
d="M407 688h-84v42h84v-42zM730 323h-42v84h42v-84zM407 323h-84v84h84v-84zM42 323h-42v84h42v-84zM407 0h-84v42h84v-42z" />
    <glyph glyph-name="minus" unicode="&#x2212;" 
d="M407 688h-84v42h84v-42zM730 323h-42v84h42v-84zM407 323h-84v84h84v-84zM42 323h-42v84h42v-84zM407 0h-84v42h84v-42z" />
    <glyph glyph-name="multiply" unicode="&#xd7;" 
d="M407 688h-84v42h84v-42zM730 323h-42v84h42v-84zM407 323h-84v84h84v-84zM42 323h-42v84h42v-84zM407 0h-84v42h84v-42z" />
    <glyph glyph-name="Adieresis" unicode="&#xc4;" horiz-adv-x="626" 
d="M507 646h-46v84h46v-84zM166 646h-46v84h46v-84zM596 0h-48l-100 280h-270l-100 -280h-48l271 742h25zM434 320l-121 339l-121 -339h242z" />
    <glyph glyph-name="Aring" unicode="&#xc5;" horiz-adv-x="626" 
d="M596 0h-48l-100 280h-270l-100 -280h-48l260 712c-41 11 -72 48 -72 93c0 53 43 96 96 96s96 -43 96 -96c0 -45 -31 -83 -73 -93zM374 805c0 33 -27 60 -60 60s-60 -27 -60 -60s27 -60 60 -60s60 27 60 60zM434 320l-121 339l-121 -339h242z" />
    <glyph glyph-name="Ccedilla" unicode="&#xc7;" horiz-adv-x="714" 
d="M672 117c-48 -57 -130 -122 -253 -128l-26 -36c51 5 87 -20 87 -57c0 -54 -46 -75 -93 -75c-33 0 -72 16 -91 32l19 25c14 -12 49 -24 73 -24c28 0 50 11 50 36c0 21 -15 36 -49 36c-14 0 -31 -3 -43 -8l-11 17l41 54c-186 12 -331 170 -331 376c0 199 154 377 353 377
c108 0 203 -44 260 -115l-32 -29c-55 63 -131 102 -229 102c-179 0 -305 -158 -305 -332c0 -191 132 -338 308 -338c111 0 177 45 241 114z" />
    <glyph glyph-name="Eacute" unicode="&#xc9;" horiz-adv-x="519" 
d="M468 0h-388v730h369v-40h-324v-285h292v-40h-292v-325h343v-40zM344 920l-82 -130h-47l82 130h47z" />
    <glyph glyph-name="Ntilde" unicode="&#xd1;" horiz-adv-x="729" 
d="M649 0h-52l-474 672s2 -25 2 -54v-618h-45v730h56l470 -669s-2 25 -2 54v615h45v-730zM512 857c-3 -46 -18 -79 -73 -79c-22 0 -44 12 -64 23c-19 11 -36 20 -50 20c-21 0 -31 -16 -32 -41h-41c3 46 19 79 73 79c20 0 41 -10 60 -20c21 -12 40 -23 54 -23
c21 0 31 16 32 41h41z" />
    <glyph glyph-name="Odieresis" unicode="&#xd6;" horiz-adv-x="810" 
d="M769 646h-46v84h46v-84zM765 366c0 -213 -157 -378 -359 -378s-361 164 -361 377s159 377 361 377s359 -163 359 -376zM718 365c0 190 -133 335 -312 335c-177 0 -314 -145 -314 -335s137 -335 314 -335s312 145 312 335zM87 646h-46v84h46v-84z" />
    <glyph glyph-name="Udieresis" unicode="&#xdc;" horiz-adv-x="671" 
d="M596 265c0 -167 -116 -277 -261 -277s-260 110 -260 277v465h45v-465c0 -134 96 -235 215 -235s216 101 216 235v465h45v-465zM436 646h-46v84h46v-84zM280 646h-46v84h46v-84z" />
    <glyph glyph-name="aacute" unicode="&#xe1;" horiz-adv-x="426" 
d="M368 0h-41v46c-34 -30 -85 -58 -148 -58c-79 0 -144 44 -144 126c0 94 77 140 210 140h82v33c0 75 -58 88 -114 88c-49 0 -88 -9 -121 -29l-17 34c37 21 83 33 138 33c108 0 155 -49 155 -122v-291zM327 87v131h-78c-109 0 -171 -30 -171 -104c0 -56 45 -88 101 -88
c59 0 113 31 148 61zM300 614l-82 -130h-47l82 130h47z" />
    <glyph glyph-name="agrave" unicode="&#xe0;" horiz-adv-x="426" 
d="M368 0h-41v46c-34 -30 -85 -58 -148 -58c-79 0 -144 44 -144 126c0 94 77 140 210 140h82v33c0 75 -58 88 -114 88c-49 0 -88 -9 -121 -29l-17 34c37 21 83 33 138 33c108 0 155 -49 155 -122v-291zM327 87v131h-78c-109 0 -171 -30 -171 -104c0 -56 45 -88 101 -88
c59 0 113 31 148 61zM246 484h-47l-82 130h47z" />
    <glyph glyph-name="acircumflex" unicode="&#xe2;" horiz-adv-x="426" 
d="M368 0h-41v46c-34 -30 -85 -58 -148 -58c-79 0 -144 44 -144 126c0 94 77 140 210 140h82v33c0 75 -58 88 -114 88c-49 0 -88 -9 -121 -29l-17 34c37 21 83 33 138 33c108 0 155 -49 155 -122v-291zM327 87v131h-78c-109 0 -171 -30 -171 -104c0 -56 45 -88 101 -88
c59 0 113 31 148 61zM327 484h-49l-68 85l-68 -85h-49l101 124h32z" />
    <glyph glyph-name="adieresis" unicode="&#xe4;" horiz-adv-x="426" 
d="M368 0h-41v46c-34 -30 -85 -58 -148 -58c-79 0 -144 44 -144 126c0 94 77 140 210 140h82v33c0 75 -58 88 -114 88c-49 0 -88 -9 -121 -29l-17 34c37 21 83 33 138 33c108 0 155 -49 155 -122v-291zM327 87v131h-78c-109 0 -171 -30 -171 -104c0 -56 45 -88 101 -88
c59 0 113 31 148 61zM310 484h-46v84h46v-84zM154 484h-46v84h46v-84z" />
    <glyph glyph-name="atilde" unicode="&#xe3;" horiz-adv-x="426" 
d="M368 0h-41v46c-34 -30 -85 -58 -148 -58c-79 0 -144 44 -144 126c0 94 77 140 210 140h82v33c0 75 -58 88 -114 88c-49 0 -88 -9 -121 -29l-17 34c37 21 83 33 138 33c108 0 155 -49 155 -122v-291zM327 87v131h-78c-109 0 -171 -30 -171 -104c0 -56 45 -88 101 -88
c59 0 113 31 148 61zM341 561c-3 -46 -18 -79 -73 -79c-22 0 -44 12 -64 23c-19 11 -36 20 -50 20c-21 0 -31 -16 -32 -41h-41c3 46 19 79 73 79c20 0 41 -10 60 -20c21 -12 40 -23 54 -23c21 0 31 16 32 41h41z" />
    <glyph glyph-name="aring" unicode="&#xe5;" horiz-adv-x="426" 
d="M368 0h-41v46c-34 -30 -85 -58 -148 -58c-79 0 -144 44 -144 126c0 94 77 140 210 140h82v33c0 75 -58 88 -114 88c-49 0 -88 -9 -121 -29l-17 34c37 21 83 33 138 33c108 0 155 -49 155 -122v-291zM327 87v131h-78c-109 0 -171 -30 -171 -104c0 -56 45 -88 101 -88
c59 0 113 31 148 61zM307 573c0 -53 -43 -96 -96 -96s-96 43 -96 96s43 96 96 96s96 -43 96 -96zM273 573c0 34 -28 62 -62 62s-62 -28 -62 -62s28 -62 62 -62s62 28 62 62z" />
    <glyph glyph-name="ccedilla" unicode="&#xe7;" horiz-adv-x="428" 
d="M403 87c-33 -51 -84 -91 -151 -98l-26 -36c51 5 87 -20 87 -57c0 -54 -46 -75 -93 -75c-33 0 -72 16 -91 32l19 25c14 -12 49 -24 73 -24c28 0 50 11 50 36c0 21 -15 36 -49 36c-14 0 -31 -3 -43 -8l-11 17l41 54c-102 12 -176 101 -176 213c0 118 86 211 196 211
c87 0 137 -41 167 -77l-33 -26c-32 40 -73 65 -128 65c-94 0 -159 -77 -159 -171c0 -97 65 -178 153 -178c64 0 107 31 142 82z" />
    <glyph glyph-name="eacute" unicode="&#xe9;" horiz-adv-x="444" 
d="M416 206h-340c1 -102 59 -180 162 -180c59 0 103 22 140 60l29 -25c-28 -35 -86 -73 -171 -73c-137 0 -203 104 -203 219c0 104 64 206 197 206c128 0 181 -104 186 -207zM366 242c-5 62 -49 133 -138 133c-94 0 -139 -61 -150 -133h288zM321 614l-82 -130h-47l82 130h47
z" />
    <glyph glyph-name="egrave" unicode="&#xe8;" horiz-adv-x="444" 
d="M416 206h-340c1 -102 59 -180 162 -180c59 0 103 22 140 60l29 -25c-28 -35 -86 -73 -171 -73c-137 0 -203 104 -203 219c0 104 64 206 197 206c128 0 181 -104 186 -207zM366 242c-5 62 -49 133 -138 133c-94 0 -139 -61 -150 -133h288zM251 484h-47l-82 130h47z" />
    <glyph glyph-name="ecircumflex" unicode="&#xea;" horiz-adv-x="444" 
d="M416 206h-340c1 -102 59 -180 162 -180c59 0 103 22 140 60l29 -25c-28 -35 -86 -73 -171 -73c-137 0 -203 104 -203 219c0 104 64 206 197 206c128 0 181 -104 186 -207zM366 242c-5 62 -49 133 -138 133c-94 0 -139 -61 -150 -133h288zM343 474h-49l-68 85l-68 -85h-49
l101 124h32z" />
    <glyph glyph-name="edieresis" unicode="&#xeb;" horiz-adv-x="444" 
d="M416 206h-340c1 -102 59 -180 162 -180c59 0 103 22 140 60l29 -25c-28 -35 -86 -73 -171 -73c-137 0 -203 104 -203 219c0 104 64 206 197 206c128 0 181 -104 186 -207zM366 242c-5 62 -49 133 -138 133c-94 0 -139 -61 -150 -133h288zM326 484h-46v84h46v-84zM170 484
h-46v84h46v-84z" />
    <glyph glyph-name="iacute" unicode="&#xed;" horiz-adv-x="171" 
d="M106 0h-41v401h41v-401zM194 614l-82 -130h-47l82 130h47z" />
    <glyph glyph-name="igrave" unicode="&#xec;" horiz-adv-x="171" 
d="M106 0h-41v401h41v-401zM194 484h-47l-82 130h47z" />
    <glyph glyph-name="icircumflex" unicode="&#xee;" horiz-adv-x="171" 
d="M106 0h-41v401h41v-401zM299 474h-49l-68 85l-68 -85h-49l101 124h32z" />
    <glyph glyph-name="idieresis" unicode="&#xef;" horiz-adv-x="171" 
d="M171 484h-46v84h46v-84zM46 484h-46v84h46v-84zM106 0h-41v401h41v-401z" />
    <glyph glyph-name="ntilde" unicode="&#xf1;" horiz-adv-x="448" 
d="M390 0h-41v265c0 64 -40 112 -110 112c-79 0 -133 -70 -133 -131v-246h-41v401h41v-66c25 47 76 78 135 78c94 0 149 -62 149 -142v-271zM355 561c-3 -46 -18 -79 -73 -79c-22 0 -44 12 -64 23c-19 11 -36 20 -50 20c-21 0 -31 -16 -32 -41h-41c3 46 19 79 73 79
c20 0 41 -10 60 -20c21 -12 40 -23 54 -23c21 0 31 16 32 41h41z" />
    <glyph glyph-name="oacute" unicode="&#xf3;" horiz-adv-x="490" 
d="M457 201c0 -125 -95 -213 -212 -213s-212 88 -212 213s95 212 212 212s212 -87 212 -212zM414 201c0 101 -72 174 -169 174s-169 -73 -169 -174s72 -175 169 -175s169 74 169 175zM338 614l-82 -130h-47l82 130h47z" />
    <glyph glyph-name="ograve" unicode="&#xf2;" horiz-adv-x="490" 
d="M457 201c0 -125 -95 -213 -212 -213s-212 88 -212 213s95 212 212 212s212 -87 212 -212zM414 201c0 101 -72 174 -169 174s-169 -73 -169 -174s72 -175 169 -175s169 74 169 175zM265 484h-47l-82 130h47z" />
    <glyph glyph-name="ocircumflex" unicode="&#xf4;" horiz-adv-x="490" 
d="M457 201c0 -125 -95 -213 -212 -213s-212 88 -212 213s95 212 212 212s212 -87 212 -212zM414 201c0 101 -72 174 -169 174s-169 -73 -169 -174s72 -175 169 -175s169 74 169 175zM358 474h-49l-68 85l-68 -85h-49l101 124h32z" />
    <glyph glyph-name="odieresis" unicode="&#xf6;" horiz-adv-x="490" 
d="M457 201c0 -125 -95 -213 -212 -213s-212 88 -212 213s95 212 212 212s212 -87 212 -212zM414 201c0 101 -72 174 -169 174s-169 -73 -169 -174s72 -175 169 -175s169 74 169 175zM340 484h-46v84h46v-84zM184 484h-46v84h46v-84z" />
    <glyph glyph-name="otilde" unicode="&#xf5;" horiz-adv-x="490" 
d="M457 201c0 -125 -95 -213 -212 -213s-212 88 -212 213s95 212 212 212s212 -87 212 -212zM414 201c0 101 -72 174 -169 174s-169 -73 -169 -174s72 -175 169 -175s169 74 169 175zM371 561c-3 -46 -18 -79 -73 -79c-22 0 -44 12 -64 23c-19 11 -36 20 -50 20
c-21 0 -31 -16 -32 -41h-41c3 46 19 79 73 79c20 0 41 -10 60 -20c21 -12 40 -23 54 -23c21 0 31 16 32 41h41z" />
    <glyph glyph-name="uacute" unicode="&#xfa;" horiz-adv-x="448" 
d="M383 0h-41v66c-25 -47 -76 -78 -135 -78c-94 0 -149 62 -149 142v271h41v-265c0 -64 40 -112 110 -112c79 0 133 70 133 131v246h41v-401zM315 604l-82 -130h-47l82 130h47z" />
    <glyph glyph-name="ugrave" unicode="&#xf9;" horiz-adv-x="448" 
d="M383 0h-41v66c-25 -47 -76 -78 -135 -78c-94 0 -149 62 -149 142v271h41v-265c0 -64 40 -112 110 -112c79 0 133 70 133 131v246h41v-401zM244 474h-47l-82 130h47z" />
    <glyph glyph-name="ucircumflex" unicode="&#xfb;" horiz-adv-x="448" 
d="M383 0h-41v66c-25 -47 -76 -78 -135 -78c-94 0 -149 62 -149 142v271h41v-265c0 -64 40 -112 110 -112c79 0 133 70 133 131v246h41v-401zM338 474h-49l-68 85l-68 -85h-49l101 124h32z" />
    <glyph glyph-name="udieresis" unicode="&#xfc;" horiz-adv-x="448" 
d="M383 0h-41v66c-25 -47 -76 -78 -135 -78c-94 0 -149 62 -149 142v271h41v-265c0 -64 40 -112 110 -112c79 0 133 70 133 131v246h41v-401zM322 474h-46v84h46v-84zM166 474h-46v84h46v-84z" />
    <glyph glyph-name="degree" unicode="&#xb0;" horiz-adv-x="374" 
d="M344 585c0 -87 -70 -157 -157 -157s-157 70 -157 157s70 157 157 157s157 -70 157 -157zM305 585c0 66 -52 118 -118 118s-118 -52 -118 -118s52 -118 118 -118s118 52 118 118z" />
    <glyph glyph-name="registered" unicode="&#xae;" horiz-adv-x="844" 
d="M799 365c0 -208 -169 -377 -377 -377s-377 169 -377 377s169 377 377 377s377 -169 377 -377zM765 364c0 189 -152 345 -343 345s-343 -156 -343 -345s152 -343 343 -343s343 154 343 343zM575 155h-51l-180 205v-205h-39v438h119c75 0 139 -45 139 -121
c0 -85 -69 -124 -147 -124h-14zM522 472c0 53 -41 84 -98 84h-80v-173h74c62 0 104 32 104 89z" />
    <glyph glyph-name="copyright" unicode="&#xa9;" horiz-adv-x="844" 
d="M799 365c0 -208 -169 -377 -377 -377s-377 169 -377 377s169 377 377 377s377 -169 377 -377zM765 364c0 189 -152 345 -343 345s-343 -156 -343 -345s152 -343 343 -343s343 154 343 343zM586 217c-30 -35 -87 -76 -164 -76c-120 0 -213 97 -213 226
c0 122 87 226 209 226c65 0 125 -26 159 -68l-28 -26c-31 35 -73 55 -125 55c-104 0 -173 -83 -173 -185c0 -105 72 -189 170 -189c63 0 101 23 137 62z" />
    <glyph glyph-name="trademark" unicode="&#x2122;" horiz-adv-x="789" 
d="M735 292h-35v387l-148 -230h-18l-148 230v-387h-35v438h41l151 -236l150 236h42v-438zM273 698h-107v-406h-35v406h-108v32h250v-32z" />
    <glyph glyph-name="notequal" unicode="&#x2260;" horiz-adv-x="409" 
d="M385 365h-74v-365h-41v365h-152v-365h-41v365h-70v36h70v241c0 62 35 88 81 88h34v-38h-31c-26 0 -43 -13 -43 -57v-234h152v241c0 62 35 88 81 88h34v-38h-31c-26 0 -43 -13 -43 -57v-234h74v-36z" />
    <glyph glyph-name="infinity" unicode="&#x221e;" horiz-adv-x="567" 
d="M502 513h-41v80h41v-80zM502 0h-41v401h41v-401zM385 365h-74v-365h-41v365h-152v-365h-41v365h-70v36h70v241c0 62 35 88 81 88h34v-38h-31c-26 0 -43 -13 -43 -57v-234h152v241c0 62 35 88 81 88h34v-38h-31c-26 0 -43 -13 -43 -57v-234h74v-36z" />
    <glyph glyph-name="plusminus" unicode="&#xb1;" horiz-adv-x="567" 
d="M502 0h-41v730h41v-730zM385 365h-74v-365h-41v365h-152v-365h-41v365h-70v36h70v241c0 62 35 88 81 88h34v-38h-31c-26 0 -43 -13 -43 -57v-234h152v241c0 62 35 88 81 88h34v-38h-31c-26 0 -43 -13 -43 -57v-234h74v-36z" />
    <glyph glyph-name="lessequal" unicode="&#x2264;" 
d="M407 688h-84v42h84v-42zM730 323h-42v84h42v-84zM407 323h-84v84h84v-84zM42 323h-42v84h42v-84zM407 0h-84v42h84v-42z" />
    <glyph glyph-name="greaterequal" unicode="&#x2265;" 
d="M407 688h-84v42h84v-42zM730 323h-42v84h42v-84zM407 323h-84v84h84v-84zM42 323h-42v84h42v-84zM407 0h-84v42h84v-42z" />
    <glyph glyph-name="mu" unicode="&#xb5;" 
d="M407 688h-84v42h84v-42zM730 323h-42v84h42v-84zM407 323h-84v84h84v-84zM42 323h-42v84h42v-84zM407 0h-84v42h84v-42z" />
    <glyph glyph-name="partialdiff" unicode="&#x2202;" 
d="M407 688h-84v42h84v-42zM730 323h-42v84h42v-84zM407 323h-84v84h84v-84zM42 323h-42v84h42v-84zM407 0h-84v42h84v-42z" />
    <glyph glyph-name="summation" unicode="&#x2211;" 
d="M407 688h-84v42h84v-42zM730 323h-42v84h42v-84zM407 323h-84v84h84v-84zM42 323h-42v84h42v-84zM407 0h-84v42h84v-42z" />
    <glyph glyph-name="product" unicode="&#x220f;" 
d="M407 688h-84v42h84v-42zM730 323h-42v84h42v-84zM407 323h-84v84h84v-84zM42 323h-42v84h42v-84zM407 0h-84v42h84v-42z" />
    <glyph glyph-name="pi" unicode="&#x3c0;" horiz-adv-x="844" 
d="M799 365c0 -208 -169 -377 -377 -377s-377 169 -377 377s169 377 377 377s377 -169 377 -377zM765 364c0 189 -152 345 -343 345s-343 -156 -343 -345s152 -343 343 -343s343 154 343 343zM577 459c0 -76 -59 -129 -145 -129h-70v-184h-40v438h110c88 0 145 -49 145 -125
zM536 458c0 55 -39 89 -103 89h-71v-180h64c80 0 110 42 110 91z" />
    <glyph glyph-name="integral" unicode="&#x222b;" 
d="M407 688h-84v42h84v-42zM730 323h-42v84h42v-84zM407 323h-84v84h84v-84zM42 323h-42v84h42v-84zM407 0h-84v42h84v-42z" />
    <glyph glyph-name="Omega" unicode="&#x3a9;" 
d="M407 688h-84v42h84v-42zM730 323h-42v84h42v-84zM407 323h-84v84h84v-84zM42 323h-42v84h42v-84zM407 0h-84v42h84v-42z" />
    <glyph glyph-name="logicalnot" unicode="&#xac;" 
d="M407 688h-84v42h84v-42zM730 323h-42v84h42v-84zM407 323h-84v84h84v-84zM42 323h-42v84h42v-84zM407 0h-84v42h84v-42z" />
    <glyph glyph-name="radical" unicode="&#x221a;" horiz-adv-x="510" 
d="M485 730l-284 -759l-182 345h47l121 -226c6 -11 11 -26 11 -26s5 16 8 25l234 641h45z" />
    <glyph glyph-name="approxequal" unicode="&#x2248;" 
d="M407 688h-84v42h84v-42zM730 323h-42v84h42v-84zM407 323h-84v84h84v-84zM42 323h-42v84h42v-84zM407 0h-84v42h84v-42z" />
    <glyph glyph-name="Delta" unicode="&#x394;" 
d="M407 688h-84v42h84v-42zM730 323h-42v84h42v-84zM407 323h-84v84h84v-84zM42 323h-42v84h42v-84zM407 0h-84v42h84v-42z" />
    <glyph glyph-name="nbspace" unicode="&#xa0;" horiz-adv-x="100" 
 />
    <glyph glyph-name="Agrave" unicode="&#xc0;" horiz-adv-x="626" 
d="M596 0h-48l-100 280h-270l-100 -280h-48l271 742h25zM434 320l-121 339l-121 -339h242zM332 790h-47l-82 130h47z" />
    <glyph glyph-name="Atilde" unicode="&#xc3;" horiz-adv-x="626" 
d="M596 0h-48l-100 280h-270l-100 -280h-48l271 742h25zM434 320l-121 339l-121 -339h242zM447 867c-3 -46 -18 -79 -73 -79c-22 0 -44 12 -64 23c-19 11 -36 20 -50 20c-21 0 -31 -16 -32 -41h-41c3 46 19 79 73 79c20 0 41 -10 60 -20c21 -12 40 -23 54 -23
c21 0 31 16 32 41h41z" />
    <glyph glyph-name="Otilde" unicode="&#xd5;" horiz-adv-x="810" 
d="M765 366c0 -213 -157 -378 -359 -378s-361 164 -361 377s159 377 361 377s359 -163 359 -376zM718 365c0 190 -133 335 -312 335c-177 0 -314 -145 -314 -335s137 -335 314 -335s312 145 312 335zM530 867c-3 -46 -18 -79 -73 -79c-22 0 -44 12 -64 23
c-19 11 -36 20 -50 20c-21 0 -31 -16 -32 -41h-41c3 46 19 79 73 79c20 0 41 -10 60 -20c21 -12 40 -23 54 -23c21 0 31 16 32 41h41z" />
    <glyph glyph-name="divide" unicode="&#xf7;" 
d="M407 688h-84v42h84v-42zM730 323h-42v84h42v-84zM407 323h-84v84h84v-84zM42 323h-42v84h42v-84zM407 0h-84v42h84v-42z" />
    <glyph glyph-name="lozenge" unicode="&#x25ca;" 
d="M407 688h-84v42h84v-42zM730 323h-42v84h42v-84zM407 323h-84v84h84v-84zM42 323h-42v84h42v-84zM407 0h-84v42h84v-42z" />
    <glyph glyph-name="ydieresis" unicode="&#xff;" horiz-adv-x="396" 
d="M379 401l-200 -508c-19 -48 -52 -82 -98 -82c-25 0 -43 4 -59 12v40c16 -10 30 -15 49 -15c39 0 61 31 75 67l35 87l-164 399h44l143 -345l134 345h41zM299 474h-46v84h46v-84zM143 474h-46v84h46v-84z" />
    <glyph glyph-name="Ydieresis" unicode="&#x178;" horiz-adv-x="628" 
d="M600 730l-265 -382v-348h-45v349l-262 381h52l235 -340l234 340h51zM415 780h-46v84h46v-84zM259 780h-46v84h46v-84z" />
    <glyph glyph-name="Acircumflex" unicode="&#xc2;" horiz-adv-x="626" 
d="M596 0h-48l-100 280h-270l-100 -280h-48l271 742h25zM434 320l-121 339l-121 -339h242zM427 780h-49l-68 85l-68 -85h-49l101 124h32z" />
    <glyph glyph-name="Ecircumflex" unicode="&#xca;" horiz-adv-x="519" 
d="M468 0h-388v730h369v-40h-324v-285h292v-40h-292v-325h343v-40zM380 790h-49l-68 85l-68 -85h-49l101 124h32z" />
    <glyph glyph-name="Aacute" unicode="&#xc1;" horiz-adv-x="626" 
d="M596 0h-48l-100 280h-270l-100 -280h-48l271 742h25zM434 320l-121 339l-121 -339h242zM416 920l-82 -130h-47l82 130h47z" />
    <glyph glyph-name="Edieresis" unicode="&#xcb;" horiz-adv-x="519" 
d="M468 0h-388v730h369v-40h-324v-285h292v-40h-292v-325h343v-40zM364 790h-46v84h46v-84zM208 790h-46v84h46v-84z" />
    <glyph glyph-name="Egrave" unicode="&#xc8;" horiz-adv-x="519" 
d="M468 0h-388v730h369v-40h-324v-285h292v-40h-292v-325h343v-40zM295 790h-47l-82 130h47z" />
    <glyph glyph-name="Iacute" unicode="&#xcd;" horiz-adv-x="205" 
d="M125 0h-45v730h45v-730zM209 920l-82 -130h-47l82 130h47z" />
    <glyph glyph-name="Icircumflex" unicode="&#xce;" horiz-adv-x="205" 
d="M125 0h-45v730h45v-730zM314 780h-49l-68 85l-68 -85h-49l101 124h32z" />
    <glyph glyph-name="Idieresis" unicode="&#xcf;" horiz-adv-x="205" 
d="M196 790h-46v84h46v-84zM55 790h-46v84h46v-84zM125 0h-45v730h45v-730z" />
    <glyph glyph-name="Igrave" unicode="&#xcc;" horiz-adv-x="205" 
d="M125 0h-45v730h45v-730zM209 800h-47l-82 130h47z" />
    <glyph glyph-name="Oacute" unicode="&#xd3;" horiz-adv-x="810" 
d="M765 366c0 -213 -157 -378 -359 -378s-361 164 -361 377s159 377 361 377s359 -163 359 -376zM718 365c0 190 -133 335 -312 335c-177 0 -314 -145 -314 -335s137 -335 314 -335s312 145 312 335zM501 920l-82 -130h-47l82 130h47z" />
    <glyph glyph-name="Ocircumflex" unicode="&#xd4;" horiz-adv-x="810" 
d="M765 366c0 -213 -157 -378 -359 -378s-361 164 -361 377s159 377 361 377s359 -163 359 -376zM718 365c0 190 -133 335 -312 335c-177 0 -314 -145 -314 -335s137 -335 314 -335s312 145 312 335zM516 790h-49l-68 85l-68 -85h-49l101 124h32z" />
    <glyph glyph-name="apple" unicode="&#xf8ff;" 
d="M407 688h-84v42h84v-42zM730 323h-42v84h42v-84zM407 323h-84v84h84v-84zM42 323h-42v84h42v-84zM407 0h-84v42h84v-42z" />
    <glyph glyph-name="Ograve" unicode="&#xd2;" horiz-adv-x="810" 
d="M765 366c0 -213 -157 -378 -359 -378s-361 164 -361 377s159 377 361 377s359 -163 359 -376zM718 365c0 190 -133 335 -312 335c-177 0 -314 -145 -314 -335s137 -335 314 -335s312 145 312 335zM429 790h-47l-82 130h47z" />
    <glyph glyph-name="Uacute" unicode="&#xda;" horiz-adv-x="671" 
d="M596 265c0 -167 -116 -277 -261 -277s-260 110 -260 277v465h45v-465c0 -134 96 -235 215 -235s216 101 216 235v465h45v-465zM419 910l-82 -130h-47l82 130h47z" />
    <glyph glyph-name="Ucircumflex" unicode="&#xdb;" horiz-adv-x="671" 
d="M596 265c0 -167 -116 -277 -261 -277s-260 110 -260 277v465h45v-465c0 -134 96 -235 215 -235s216 101 216 235v465h45v-465zM454 780h-49l-68 85l-68 -85h-49l101 124h32z" />
    <glyph glyph-name="Ugrave" unicode="&#xd9;" horiz-adv-x="671" 
d="M596 265c0 -167 -116 -277 -261 -277s-260 110 -260 277v465h45v-465c0 -134 96 -235 215 -235s216 101 216 235v465h45v-465zM369 780h-47l-82 130h47z" />
    </font>
</defs>
</svg>
